<?xml version="1.0" standalone="no"?>
<!DOCTYPE svg PUBLIC "-//W3C//DTD SVG 20010904//EN"
 "http://www.w3.org/TR/2001/REC-SVG-20010904/DTD/svg10.dtd">
<svg version="1.0" xmlns="http://www.w3.org/2000/svg"
 width="200.000000pt" height="200.000000pt" viewBox="0 0 200.000000 200.000000"
 preserveAspectRatio="xMidYMid meet">

<g transform="translate(0.000000,200.000000) scale(0.100000,-0.100000)"
fill="#000000" stroke="none">
<path d="M0 1000 l0 -1000 1000 0 1000 0 0 1000 0 1000 -1000 0 -1000 0 0
-1000z m1214 758 c2 -18 10 -71 16 -118 46 -335 262 -654 578 -853 l63 -40
-17 -26 c-82 -130 -247 -301 -361 -375 -169 -108 -261 -137 -458 -143 -129 -4
-162 -2 -235 16 -179 44 -384 174 -517 330 -61 71 -143 183 -143 195 0 3 38
30 85 61 183 121 346 300 440 485 64 128 125 350 125 461 l0 39 210 0 209 0 5
-32z"/>
<path d="M900 1680 c0 -61 35 -227 70 -331 85 -255 235 -480 443 -666 68 -61
179 -143 194 -143 12 0 69 60 122 129 l41 53 -72 52 c-215 150 -398 388 -483
626 -30 84 -65 238 -65 288 l0 32 -125 0 -125 0 0 -40z"/>
<path d="M812 1467 c-70 -251 -251 -506 -482 -676 -47 -35 -87 -65 -89 -67 -9
-8 145 -186 205 -235 82 -68 88 -70 80 -28 -8 43 17 141 46 183 12 17 56 67
97 112 94 99 196 234 251 330 l41 73 -39 108 c-22 59 -48 144 -58 188 -9 44
-20 83 -24 87 -3 4 -16 -30 -28 -75z"/>
<path d="M965 1020 c-50 -83 -140 -203 -204 -272 l-53 -57 48 -30 c80 -51 137
-66 254 -66 103 0 107 1 193 42 48 23 87 45 87 49 0 4 -26 37 -58 73 -82 94
-115 138 -176 235 l-54 86 -37 -60z"/>
<path d="M641 617 c-42 -52 -53 -155 -22 -223 16 -36 27 -44 84 -67 100 -40
189 -57 300 -57 128 0 239 26 350 80 75 37 197 118 196 130 0 4 -108 88 -185
145 -10 7 -22 4 -41 -8 -98 -64 -206 -97 -318 -97 -102 0 -181 20 -272 70 -82
46 -77 44 -92 27z"/>
</g>
</svg>
