<?xml version="1.0" encoding="UTF-8" standalone="no"?>
<svg
   xmlns:dc="http://purl.org/dc/elements/1.1/"
   xmlns:cc="http://creativecommons.org/ns#"
   xmlns:rdf="http://www.w3.org/1999/02/22-rdf-syntax-ns#"
   xmlns:svg="http://www.w3.org/2000/svg"
   xmlns="http://www.w3.org/2000/svg"
   xmlns:sodipodi="http://sodipodi.sourceforge.net/DTD/sodipodi-0.dtd"
   xmlns:inkscape="http://www.inkscape.org/namespaces/inkscape"
   width="102.74997"
   height="63.932312"
   viewBox="0 0 27.185929 16.915425"
   version="1.1"
   id="svg16"
   inkscape:version="1.0.1 (c497b03c, 2020-09-10)"
   sodipodi:docname="SAE.svg">
  <defs
     id="defs10" />
  <sodipodi:namedview
     id="base"
     pagecolor="#00ffff"
     bordercolor="#666666"
     borderopacity="1.0"
     inkscape:pageopacity="0"
     inkscape:pageshadow="2"
     inkscape:zoom="1.5591843"
     inkscape:cx="119.62145"
     inkscape:cy="76.260533"
     inkscape:document-units="px"
     inkscape:current-layer="layer1"
     inkscape:document-rotation="0"
     showgrid="false"
     units="px"
     lock-margins="true"
     fit-margin-top="0.5"
     fit-margin-left="0.5"
     fit-margin-right="0.5"
     fit-margin-bottom="0.5"
     inkscape:window-width="1440"
     inkscape:window-height="872"
     inkscape:window-x="0"
     inkscape:window-y="28"
     inkscape:window-maximized="0" />
  <metadata
     id="metadata13">
    <rdf:RDF>
      <cc:Work
         rdf:about="">
        <dc:format>image/svg+xml</dc:format>
        <dc:type
           rdf:resource="http://purl.org/dc/dcmitype/StillImage" />
        <dc:title></dc:title>
      </cc:Work>
    </rdf:RDF>
  </metadata>
  <g
     inkscape:label="Layer 1"
     inkscape:groupmode="layer"
     id="layer1"
     transform="translate(-86.073247,-60.357639)">
    <g
       id="g28356"
       transform="translate(54.644827,39.731771)">
      <path
         style="fill:#26abe8;fill-opacity:1;fill-rule:nonzero;stroke:none;stroke-width:0.352778"
         d="m 37.20929,30.99974 c -1.271929,0 -2.104264,-0.325217 -2.375738,-1.634353 h -3.27284 c 0,0.523654 0.275607,2.750564 2.266872,3.684874 1.116211,0.523655 2.361958,0.615983 3.329341,0.615983 l 2.000911,-3.32934 c -0.137804,0.188791 -0.416167,0.662836 -1.948546,0.662836 m 4.074859,-4.20026 -2.095996,3.486436 c 0.362424,-0.745518 -0.221864,-1.141015 -0.587044,-1.251258 -0.613227,-0.234267 -2.536969,-0.613227 -3.785471,-0.978407 -0.624252,-0.183279 -1.12448,-0.458887 -1.368392,-0.635276 -0.08268,-0.05788 -1.419379,-0.932932 -1.419379,-2.750564 0,-0.774458 0.387228,-3.912251 5.199338,-3.912251 3.956347,0 5.029839,2.312348 5.124923,3.695899 h -3.237011 c -0.114377,-0.502984 -0.56913,-1.096919 -1.958192,-1.105187 -0.319705,-0.0014 -1.602659,0.03307 -1.726682,0.866786 -0.05237,0.3514 0.100597,0.592557 0.300412,0.742763 0.198437,0.151584 0.553972,0.234266 0.682129,0.272851 0.585666,0.175011 1.865864,0.42168 2.495627,0.577398 1.099675,0.270096 1.885157,0.602203 2.375738,0.99081 m 15.676563,-5.833236 h -7.435894 v 2.692687 h 7.435894 z m -0.631141,5.003657 h -6.804753 v 2.691308 h 6.804753 z m -6.804753,5.003657 h 7.435894 v 2.692686 h -7.435894 z m 0,0"
         id="path22901" />
      <path
         style="fill:#144f91;fill-opacity:1;fill-rule:nonzero;stroke:none;stroke-width:0.352778"
         d="m 46.551011,28.658453 h -3.009635 l 3.009635,-5.006412 z m 2.973807,-7.693587 H 44.7885 l -3.504351,5.834614 -2.095996,3.486436 -0.03032,0.05099 -1.999534,3.32934 h 3.374816 l 1.619195,-2.694064 h 4.398698 v 2.694064 h 2.973807 z m 4.926487,15.558051 -0.23151,-0.689019 -0.234266,0.689019 z m 0.748273,0.847494 h -0.456131 l -0.158475,-0.460265 h -0.733114 l -0.15572,0.460265 h -0.443727 l 0.759298,-2.116667 h 0.428572 z M 50.11324,36.305187 c 0,-0.417545 -0.212218,-0.68075 -0.507118,-0.68075 -0.299035,0 -0.508496,0.260449 -0.508496,0.677994 v 0.02067 c 0,0.417545 0.216352,0.680751 0.511252,0.680751 0.2949,0 0.504362,-0.26045 0.504362,-0.676617 z m 0.45613,-0.0124 v 0.03721 c 0,0.631141 -0.401009,1.079004 -0.963248,1.079004 -0.566374,0 -0.961871,-0.440973 -0.961871,-1.073492 v -0.03583 c 0,-0.635276 0.401009,-1.079004 0.964627,-1.079004 0.566374,0 0.960492,0.440972 0.960492,1.072114 m -2.929709,1.077625 h 0.440973 v -2.116666 h -0.440973 z m -2.013314,-1.711522 h 0.536057 v 1.711524 h 0.438216 v -1.711524 h 0.534679 v -0.405143 h -1.508952 z m 10.47309,-0.405143 h -0.440972 v 2.116667 h 1.302247 v -0.402387 h -0.861275 z m -3.746885,1.233344 -0.814421,-1.233344 h -0.405143 v 2.116667 h 0.432704 v -1.280198 l 0.841982,1.280198 h 0.377581 v -2.116667 h -0.432703 z m -7.652246,0.03583 -0.231511,-0.689019 -0.232888,0.689019 z m -0.0014,-1.269173 0.759299,2.116667 H 45.002074 L 44.8436,36.910152 h -0.733116 l -0.154341,0.460265 h -0.443728 l 0.757921,-2.116667 z m -9.469881,0.405143 h 0.534679 v 1.711524 h 0.438216 v -1.711524 h 0.534679 V 35.25375 h -1.507574 z m -0.924664,0.828201 -0.815798,-1.233344 h -0.403765 v 2.116667 h 0.431326 v -1.280198 l 0.843359,1.280198 h 0.376205 V 35.25375 h -0.431327 z m 3.362414,0.01516 H 38.48811 V 36.10675 h -0.821311 v -0.457509 h 0.93431 v -0.395497 h -1.371148 v 2.116667 h 1.38355 v -0.396875 h -0.946712 z m -5.669249,0.868164 h 0.440972 V 35.253744 H 31.99755 Z m 8.350911,-1.402843 c 0,-0.212218 -0.129535,-0.318327 -0.355534,-0.318327 h -0.316949 v 0.638032 h 0.326595 c 0.224621,0 0.345888,-0.12678 0.345888,-0.316949 z m 0.04961,0.615983 0.453375,0.78686 h -0.50574 l -0.392741,-0.69591 h -0.276986 v 0.69591 h -0.440972 v -2.116667 h 0.80064 c 0.246669,0 0.443729,0.0689 0.577398,0.202572 0.115756,0.114377 0.180524,0.281119 0.180524,0.489203 v 0.0124 c 0,0.321083 -0.161231,0.523655 -0.395498,0.62563 m 2.217264,-1.329808 h 0.432704 v 2.116667 h -0.377583 l -0.843359,-1.280197 v 1.280197 H 41.39577 v -2.116667 h 0.405143 l 0.814421,1.233345 z m 15.443674,1.485524 c 0,-0.05926 -0.03996,-0.08819 -0.103353,-0.08819 h -0.128157 v 0.173633 h 0.130912 c 0.06615,0 0.100598,-0.03583 0.100598,-0.08544 m 0.0055,0.176389 0.143316,0.21084 H 58.056242 L 57.93084,36.936329 h -0.103353 v 0.190169 H 57.697951 V 36.53532 h 0.261828 c 0.140561,0 0.23151,0.07304 0.23151,0.195681 0,0.09646 -0.05237,0.155719 -0.126778,0.184657 m 0.352778,-0.07028 c 0,-0.272851 -0.210841,-0.491959 -0.489204,-0.491959 -0.281121,0 -0.493338,0.221864 -0.493338,0.496093 0,0.272852 0.210841,0.49196 0.489204,0.49196 0.281118,0 0.493338,-0.221864 0.493338,-0.496094 m 0.06477,0 c 0,0.304547 -0.24667,0.558106 -0.558105,0.558106 -0.311436,0 -0.553971,-0.250803 -0.553971,-0.553972 0,-0.304546 0.24529,-0.558105 0.558105,-0.558105 0.311436,0 0.553971,0.250803 0.553971,0.553971"
         id="path22903" />
    </g>
  </g>
</svg>
