<svg id="Layer_1" data-name="Layer 1" xmlns="http://www.w3.org/2000/svg" viewBox="0 0 180 72"><defs><style>.cls-1{fill:#500000;}</style></defs><title>Artboard 2</title><path class="cls-1" d="M39.73,27.77h-1a4.23,4.23,0,0,0-.58-2,1.87,1.87,0,0,0-1-.78A4.39,4.39,0,0,0,36,24.88H34.18V35.35a2.9,2.9,0,0,0,.13,1,1,1,0,0,0,.59.53,3.73,3.73,0,0,0,1.36.19v1H29.09V37a2.58,2.58,0,0,0,1.7-.38,1.82,1.82,0,0,0,.38-1.31V24.88H29.65a6.46,6.46,0,0,0-1.49.14,1.8,1.8,0,0,0-1,.78,3.78,3.78,0,0,0-.51,2h-1V23.71H39.73Z"/><path class="cls-1" d="M53.67,33.31,53.55,38H40.83V37a2.56,2.56,0,0,0,1.7-.38,1.82,1.82,0,0,0,.38-1.31v-9a3,3,0,0,0-.12-1,1,1,0,0,0-.57-.54,3.78,3.78,0,0,0-1.39-.19v-1H52.68l.19,3.71h-1a4.9,4.9,0,0,0-.75-1.77,1.74,1.74,0,0,0-1-.66,7.9,7.9,0,0,0-1.6-.12H45.92v5.05h1.45a3.54,3.54,0,0,0,1.12-.13.83.83,0,0,0,.52-.5,4.06,4.06,0,0,0,.2-1.16h1V32.9h-1A3.41,3.41,0,0,0,49,31.73a.89.89,0,0,0-.53-.5,3.57,3.57,0,0,0-1.11-.13H45.92v3.36c0,.56,0,1,0,1.23a1.35,1.35,0,0,0,.23.65,1,1,0,0,0,.6.37,4.57,4.57,0,0,0,1.18.12h1.15a5.11,5.11,0,0,0,1.39-.18,2.69,2.69,0,0,0,1.29-.95,5,5,0,0,0,.89-2.4Z"/><path class="cls-1" d="M83.53,36.81a1.6,1.6,0,0,1-.61-.64c-.15-.28-.38-.81-.69-1.59L77.88,23.45h-1L72.76,34.23A11.8,11.8,0,0,1,72,36a2.28,2.28,0,0,1-.79.84,1.73,1.73,0,0,1-.45.16,3,3,0,0,1-.74-.18A3.1,3.1,0,0,1,69,36a18.92,18.92,0,0,1-1.28-1.56l-3.48-4.55L66.76,27c.56-.64,1-1.1,1.27-1.38a3.52,3.52,0,0,1,1-.68,3.31,3.31,0,0,1,1.39-.26v-1H64.52v1H65a2.19,2.19,0,0,1,1,.15.53.53,0,0,1,.26.5.83.83,0,0,1-.09.41c-.06.11-.2.3-.4.56L63.51,29l-2-2.57a3.3,3.3,0,0,1-.64-1.14.44.44,0,0,1,.3-.48,3.44,3.44,0,0,1,.9-.09h.55v-1h-7.8v1a4.17,4.17,0,0,1,1.31.16,2,2,0,0,1,.81.52c.23.24.61.7,1.13,1.38l3.44,4.54-2.54,3a18.59,18.59,0,0,1-1.74,1.83,3.71,3.71,0,0,1-1.2.75,4.08,4.08,0,0,1-1.22.2v1H61.1V37a8.19,8.19,0,0,1-1,0,1.24,1.24,0,0,1-.63-.24.68.68,0,0,1-.26-.58A2.52,2.52,0,0,1,60,34.81l2.22-2.59,2.31,3a2.48,2.48,0,0,1,.56,1,.6.6,0,0,1-.44.64,3.25,3.25,0,0,1-1,.14H63v1H75.08V37a3.49,3.49,0,0,1-1.14-.17.75.75,0,0,1-.49-.8,3.71,3.71,0,0,1,.3-1.13L74.1,34h4.63l.67,1.69a1.77,1.77,0,0,1,.13.64.54.54,0,0,1-.39.57A4.72,4.72,0,0,1,77.9,37v1h6.73V37A2.21,2.21,0,0,1,83.53,36.81Zm-9-3.84,1.88-5,2,5Z"/><path class="cls-1" d="M95.42,33.75a3.79,3.79,0,0,1-.28,1.37,4.79,4.79,0,0,1-.84,1.39,4.26,4.26,0,0,1-1.42,1.08,4.48,4.48,0,0,1-2,.42,5.45,5.45,0,0,1-2.21-.48,4.87,4.87,0,0,1-1.86-1.44,5.51,5.51,0,0,0-.42,1.41h-.95V32.72h.95a9.15,9.15,0,0,0,.71,1.94,4.55,4.55,0,0,0,1.28,1.56,3.17,3.17,0,0,0,2,.66,2.4,2.4,0,0,0,1.69-.58A2,2,0,0,0,92.57,34a2.13,2.13,0,0,0-.57-.66,6.16,6.16,0,0,0-1-.63c-.43-.22-.92-.46-1.47-.71a12.29,12.29,0,0,1-2.08-1.2,5.88,5.88,0,0,1-1.23-1.18,3.72,3.72,0,0,1-.58-1.09,3.42,3.42,0,0,1-.16-1A3.77,3.77,0,0,1,86,25.6a4,4,0,0,1,1.48-1.5,4.32,4.32,0,0,1,2.25-.58,4.12,4.12,0,0,1,1.87.44,4.77,4.77,0,0,1,1.54,1.21A6.3,6.3,0,0,0,93.44,24h1v3.9h-1q-1-3.18-3.59-3.18a2.19,2.19,0,0,0-1.49.49,1.58,1.58,0,0,0-.56,1.26,1.67,1.67,0,0,0,.35,1.05,3,3,0,0,0,.92.76c.38.21,1,.52,1.85.92a27.1,27.1,0,0,1,2.42,1.27,5.28,5.28,0,0,1,1.47,1.36A3.24,3.24,0,0,1,95.42,33.75Z"/><path class="cls-1" d="M117.24,38H110.5V37a4.75,4.75,0,0,0,1.24-.12.54.54,0,0,0,.39-.57,1.78,1.78,0,0,0-.13-.64L111.33,34H106.7l-.35.93a3.67,3.67,0,0,0-.29,1.13.75.75,0,0,0,.49.8,3.46,3.46,0,0,0,1.14.17v1h-4.92V37a2.1,2.1,0,0,0,1-.22,2.28,2.28,0,0,0,.79-.84,11.82,11.82,0,0,0,.8-1.75l4.12-10.79h1l4.35,11.12c.32.78.55,1.32.69,1.59a1.59,1.59,0,0,0,.61.64,2.2,2.2,0,0,0,1.1.23ZM111,33l-2-5-1.87,5Z"/><path class="cls-1" d="M148.38,38h-7.16V37a3.66,3.66,0,0,0,1.36-.18,1,1,0,0,0,.56-.54,2.78,2.78,0,0,0,.13-1v-9L137.88,38h-.64l-5.46-11.61V34.9a8.12,8.12,0,0,0,0,1,1.24,1.24,0,0,0,.24.61,1.16,1.16,0,0,0,.62.37,4.57,4.57,0,0,0,1.17.12v1h-5.28V37a4.23,4.23,0,0,0,1.17-.13,1.13,1.13,0,0,0,.61-.38,1.22,1.22,0,0,0,.23-.61,8.9,8.9,0,0,0,0-1V26.8a6.48,6.48,0,0,0-.1-1.3.89.89,0,0,0-.52-.61,3.6,3.6,0,0,0-1.44-.21v-1h5.21l4.74,10.08,4.75-10.08h5.11v1a2.57,2.57,0,0,0-1.7.38,1.82,1.82,0,0,0-.38,1.3v9a2.88,2.88,0,0,0,.13.94,1,1,0,0,0,.58.55,3.7,3.7,0,0,0,1.37.19Z"/><path class="cls-1" d="M34,43a1.28,1.28,0,0,0-.57.09.39.39,0,0,0-.21.26,2.57,2.57,0,0,0,0,.52V46a7.7,7.7,0,0,1,0,.9,1.66,1.66,0,0,1-.22.61,1.74,1.74,0,0,1-.92.82,3.19,3.19,0,0,1-1.14.22,3.38,3.38,0,0,1-.83-.11,2.54,2.54,0,0,1-.79-.35,1.57,1.57,0,0,1-.56-.64,2.26,2.26,0,0,1-.16-.44,2.09,2.09,0,0,1-.07-.42c0-.12,0-.29,0-.5V43.65a.77.77,0,0,0-.15-.54,1,1,0,0,0-.7-.16v-.4h3V43a1.59,1.59,0,0,0-.57.08.41.41,0,0,0-.24.22,1.11,1.11,0,0,0-.06.4V46.1a5.06,5.06,0,0,0,0,.66,2.23,2.23,0,0,0,.12.5,1.18,1.18,0,0,0,.5.56,1.54,1.54,0,0,0,.78.21,1.71,1.71,0,0,0,.85-.22,1.25,1.25,0,0,0,.55-.58,2.17,2.17,0,0,0,.16-.58,6.6,6.6,0,0,0,0-.71V43.83a3.73,3.73,0,0,0,0-.42.55.55,0,0,0-.1-.25.45.45,0,0,0-.26-.16,2.06,2.06,0,0,0-.5,0v-.4H34Z"/><path class="cls-1" d="M47.84,43a1.52,1.52,0,0,0-.6.09.39.39,0,0,0-.23.25,2.41,2.41,0,0,0,0,.54V48.5h-.4l-3.86-4.58v3.24a2.28,2.28,0,0,0,0,.54A.39.39,0,0,0,43,48a1.5,1.5,0,0,0,.61.09v.4H41.4V48A1.34,1.34,0,0,0,42,48a.39.39,0,0,0,.22-.26,2.51,2.51,0,0,0,0-.54v-3c0-.24,0-.43,0-.55a.89.89,0,0,0-.09-.32.53.53,0,0,0-.24-.22,1.3,1.3,0,0,0-.46-.12v-.4h1.72l3.36,4V43.83a2.24,2.24,0,0,0,0-.5.43.43,0,0,0-.23-.27,1.27,1.27,0,0,0-.57-.1v-.4h2.2Z"/><path class="cls-1" d="M58.26,48.44h-3V48a1.65,1.65,0,0,0,.56-.08.4.4,0,0,0,.25-.21,1.15,1.15,0,0,0,.06-.41v-3.7a.74.74,0,0,0-.16-.54,1.08,1.08,0,0,0-.71-.16v-.4h3V43a1.68,1.68,0,0,0-.57.07.41.41,0,0,0-.25.21,1.13,1.13,0,0,0-.06.41v3.7a1.09,1.09,0,0,0,.06.4.4.4,0,0,0,.24.22,1.5,1.5,0,0,0,.58.08Z"/><path class="cls-1" d="M72.19,43a1.24,1.24,0,0,0-.36.06.59.59,0,0,0-.25.16,1.57,1.57,0,0,0-.2.3c-.07.13-.16.33-.28.6l-1.92,4.48h-.4l-2-4.7a5.22,5.22,0,0,0-.29-.61.56.56,0,0,0-.28-.23,1.49,1.49,0,0,0-.52-.07v-.4h3V43a2.86,2.86,0,0,0-.59.07.24.24,0,0,0-.16.26,1,1,0,0,0,.11.42l1.35,3.15,1.25-2.94a1.7,1.7,0,0,0,.16-.53c0-.19-.07-.3-.2-.35A2,2,0,0,0,70,43v-.4h2.18Z"/><path class="cls-1" d="M84.94,46.51l-.05,1.94H79.64V48a1.08,1.08,0,0,0,.7-.16.78.78,0,0,0,.15-.54v-3.7a1.28,1.28,0,0,0,0-.39.39.39,0,0,0-.24-.22,1.55,1.55,0,0,0-.57-.08v-.4h4.89l.07,1.53h-.4a2,2,0,0,0-.31-.73.73.73,0,0,0-.4-.27,3,3,0,0,0-.66-.05H81.74v2.08h.6a1.48,1.48,0,0,0,.46-.05.34.34,0,0,0,.21-.21,1.7,1.7,0,0,0,.08-.48h.42v2h-.4a1.39,1.39,0,0,0-.09-.48.35.35,0,0,0-.22-.2,1.41,1.41,0,0,0-.46-.05h-.61V47c0,.23,0,.4,0,.51a.57.57,0,0,0,.1.27.45.45,0,0,0,.25.16,2,2,0,0,0,.49,0h.47a2,2,0,0,0,.57-.08,1.09,1.09,0,0,0,.53-.39,2.1,2.1,0,0,0,.37-1Z"/><path class="cls-1" d="M99,48.44H97.4a2.26,2.26,0,0,1-.22-.28c-.09-.12-.18-.26-.28-.43l-.25-.41-.4-.66a5.31,5.31,0,0,0-.41-.61.61.61,0,0,0-.31-.21,2.69,2.69,0,0,0-.6,0h-.22v1.54a1.1,1.1,0,0,0,.05.39A.38.38,0,0,0,95,48a1.51,1.51,0,0,0,.56.08v.4h-3V48a1,1,0,0,0,.7-.16.75.75,0,0,0,.15-.54V43.63a.78.78,0,0,0-.15-.54,1,1,0,0,0-.7-.16v-.41l1.36,0h1.18l.82.05a4,4,0,0,1,.6.1,2,2,0,0,1,.62.27,1.56,1.56,0,0,1,.48.5,1.4,1.4,0,0,1,.18.72,1.33,1.33,0,0,1-.12.57,1.29,1.29,0,0,1-.41.5,2.19,2.19,0,0,1-.75.34,2,2,0,0,1,.54.46c.14.18.37.52.7,1a6.1,6.1,0,0,0,.45.63,1.16,1.16,0,0,0,.33.29A1.19,1.19,0,0,0,99,48Zm-2.44-4.32a1,1,0,0,0-.43-.93A2.36,2.36,0,0,0,95,43h-.28v2.37H95a2.57,2.57,0,0,0,1.1-.21C96.38,45,96.53,44.64,96.53,44.12Z"/><path class="cls-1" d="M110.81,46.75a1.68,1.68,0,0,1-.12.58,2.07,2.07,0,0,1-.35.59,1.83,1.83,0,0,1-.6.45,1.9,1.9,0,0,1-.83.18,2.31,2.31,0,0,1-.93-.21,2.05,2.05,0,0,1-.78-.61,2.46,2.46,0,0,0-.18.6h-.4v-2h.4a4,4,0,0,0,.3.82,1.89,1.89,0,0,0,.54.66,1.34,1.34,0,0,0,.85.28,1,1,0,0,0,.71-.24.85.85,0,0,0,.19-1,.9.9,0,0,0-.24-.28,3.11,3.11,0,0,0-.43-.27l-.62-.29a5,5,0,0,1-.88-.51,2.43,2.43,0,0,1-.52-.5,1.74,1.74,0,0,1-.24-.46,1.49,1.49,0,0,1-.07-.44,1.58,1.58,0,0,1,.21-.78,1.72,1.72,0,0,1,.63-.63,1.82,1.82,0,0,1,.95-.24,1.75,1.75,0,0,1,.79.18,2,2,0,0,1,.65.5,2.53,2.53,0,0,0,.14-.51h.41v1.64H110q-.43-1.35-1.51-1.35a.92.92,0,0,0-.63.21.67.67,0,0,0-.24.53.7.7,0,0,0,.15.45,1.3,1.3,0,0,0,.39.32c.16.09.42.22.78.39a10.59,10.59,0,0,1,1,.54,2.26,2.26,0,0,1,.63.57A1.37,1.37,0,0,1,110.81,46.75Z"/><path class="cls-1" d="M121.47,48.44h-3V48A1.65,1.65,0,0,0,119,48a.4.4,0,0,0,.25-.21,1.13,1.13,0,0,0,.06-.41v-3.7a.74.74,0,0,0-.16-.54,1.08,1.08,0,0,0-.72-.16v-.4h3V43a1.68,1.68,0,0,0-.56.07.41.41,0,0,0-.25.21,1.24,1.24,0,0,0-.06.41v3.7a1.14,1.14,0,0,0,.06.4.41.41,0,0,0,.24.22,1.51,1.51,0,0,0,.57.08Z"/><path class="cls-1" d="M134.83,44.22h-.41a1.71,1.71,0,0,0-.24-.81.76.76,0,0,0-.4-.32,1.69,1.69,0,0,0-.49-.06h-.75v4.31a1.23,1.23,0,0,0,.05.4.39.39,0,0,0,.24.22,1.49,1.49,0,0,0,.56.08v.4h-3V48a1,1,0,0,0,.7-.16.74.74,0,0,0,.16-.54V43h-.62a2.77,2.77,0,0,0-.61.06.76.76,0,0,0-.43.32,1.52,1.52,0,0,0-.21.81H129V42.55h5.82Z"/><path class="cls-1" d="M148.38,43a1,1,0,0,0-.4.11,1.08,1.08,0,0,0-.31.3c-.11.14-.27.36-.47.68L146,46v1.39a1.09,1.09,0,0,0,.05.38.38.38,0,0,0,.23.22,1.36,1.36,0,0,0,.57.09v.4h-3V48a1.63,1.63,0,0,0,.56-.08.4.4,0,0,0,.25-.21,1.13,1.13,0,0,0,.06-.41V46l-1.48-2.46,0-.06,0,0a1.31,1.31,0,0,0-.34-.41.91.91,0,0,0-.44-.11v-.4h2.76V43h-.33a.42.42,0,0,0-.2.07.21.21,0,0,0-.07.18.47.47,0,0,0,.05.2,4.77,4.77,0,0,0,.24.44l.92,1.55.88-1.38a1.5,1.5,0,0,0,.28-.66c0-.18-.06-.29-.18-.34a1.4,1.4,0,0,0-.49-.07v-.4h2.14Z"/><path class="cls-1" d="M128.43,34.41h-.59l-.05.08a1.2,1.2,0,0,1-1,.64,1.6,1.6,0,0,1-.9-.29,6,6,0,0,1-1.19-1.36,8.43,8.43,0,0,0,.72-1.41,4.76,4.76,0,0,1,.95-1.62,2.43,2.43,0,0,1,1-.57l.07,0,.13,0V29h-4v.88l.16,0h.08c.91.11,1,.49,1,.81a3,3,0,0,1-.25,1,5.5,5.5,0,0,1-.5.95l-2.31-3.2c1.46-.79,2.21-1.64,2.21-2.51a1.78,1.78,0,0,0-.82-1.52,3,3,0,0,0-1.74-.54,2.47,2.47,0,0,0-1.83.74,2.37,2.37,0,0,0-.73,1.69,4.32,4.32,0,0,0,.86,2.32,9.68,9.68,0,0,0-2,1.66,2.92,2.92,0,0,0-.62,1.88,3.09,3.09,0,0,0,.49,1.72,3.45,3.45,0,0,0,2.87,1.55,4.23,4.23,0,0,0,3-1.49,3.63,3.63,0,0,0,2.8,1.49,2.37,2.37,0,0,0,1.45-.46,2.14,2.14,0,0,0,.83-1.23l0-.11.06-.23Zm-7.22-5.75a3.62,3.62,0,0,1-.79-1.78,1.12,1.12,0,0,1,.28-.79,1.06,1.06,0,0,1,1.5,0,1.28,1.28,0,0,1,.29.88C122.5,27.57,122.06,28.12,121.22,28.66Zm-.94,1.75c.74,1,1.63,2.26,2.64,3.79a2.42,2.42,0,0,1-1.74.88,2.16,2.16,0,0,1-1.62-.8,2.53,2.53,0,0,1-.74-1.71,2.16,2.16,0,0,1,.42-1.2A3.76,3.76,0,0,1,120.28,30.42Z"/><path class="cls-1" d="M153,45.69a1.42,1.42,0,1,1-1.41,1.41A1.39,1.39,0,0,1,153,45.69Zm0,.22a1.2,1.2,0,1,0,1.14,1.2,1.16,1.16,0,0,0-1.14-1.2Zm-.26,2h-.25V46.35a3.14,3.14,0,0,1,.45,0,.85.85,0,0,1,.49.12.41.41,0,0,1-.17.71h0c.14,0,.23.15.26.38a1.31,1.31,0,0,0,.1.39h-.26a1.16,1.16,0,0,1-.11-.4.29.29,0,0,0-.34-.28h-.18Zm0-.87h.18c.21,0,.38-.08.38-.27s-.1-.27-.38-.27h-.18Z"/></svg>